<?xml version="1.0" encoding="UTF-8" standalone="no"?><svg xmlns="http://www.w3.org/2000/svg" xmlns:xlink="http://www.w3.org/1999/xlink" contentScriptType="application/ecmascript" contentStyleType="text/css" height="557px" preserveAspectRatio="none" style="width:588px;height:557px;background:#FFFFFF;" version="1.1" viewBox="0 0 588 557" width="588px" zoomAndPan="magnify"><defs><filter height="300%" id="f93s7t3wchd82" width="300%" x="-1" y="-1"><feGaussianBlur result="blurOut" stdDeviation="2.0"/><feColorMatrix in="blurOut" result="blurOut2" type="matrix" values="0 0 0 0 0 0 0 0 0 0 0 0 0 0 0 0 0 0 .4 0"/><feOffset dx="4.0" dy="4.0" in="blurOut2" result="blurOut3"/><feBlend in="SourceGraphic" in2="blurOut3" mode="normal"/></filter></defs><g><!--MD5=[ea67d725e418bd5c6130c1af66d9dc5e]
cluster Kubelet--><polygon fill="#FFFFFF" filter="url(#f93s7t3wchd82)" points="34,6,101,6,108,28.2969,220,28.2969,220,131,34,131,34,6" style="stroke:#000000;stroke-width:1.5;"/><line style="stroke:#000000;stroke-width:1.5;" x1="34" x2="108" y1="28.2969" y2="28.2969"/><text fill="#000000" font-family="sans-serif" font-size="14" font-weight="bold" lengthAdjust="spacing" textLength="61" x="38" y="20.9951">Kubelet</text><!--MD5=[97a2b643c68ae7cb7fe44e2f004e2d3f]
cluster lynxi_k8s_device_plugin--><polygon fill="#FFFFFF" filter="url(#f93s7t3wchd82)" points="16,164,210,164,217,186.2969,444,186.2969,444,550.5,16,550.5,16,164" style="stroke:#000000;stroke-width:1.5;"/><line style="stroke:#000000;stroke-width:1.5;" x1="16" x2="217" y1="186.2969" y2="186.2969"/><text fill="#000000" font-family="sans-serif" font-size="14" font-weight="bold" lengthAdjust="spacing" textLength="188" x="20" y="178.9951">lynxi_k8s_device_plugin</text><!--MD5=[5dd897bbb138c26bca2ae5885d0c2570]
cluster lynxi_tools--><polygon fill="#FFFFFF" filter="url(#f93s7t3wchd82)" points="468,445,561,445,568,467.2969,571,467.2969,571,544,468,544,468,445" style="stroke:#000000;stroke-width:1.5;"/><line style="stroke:#000000;stroke-width:1.5;" x1="468" x2="568" y1="467.2969" y2="467.2969"/><text fill="#000000" font-family="sans-serif" font-size="14" font-weight="bold" lengthAdjust="spacing" textLength="87" x="472" y="459.9951">lynxi_tools</text><!--MD5=[d3df67cb4439dbba4e0073c694a7a3de]
class DevicePluginService--><rect codeLine="2" fill="#FEFECE" filter="url(#f93s7t3wchd82)" height="73.6094" id="DevicePluginService" style="stroke:#A80036;stroke-width:1.5;" width="153" x="50.5" y="41"/><ellipse cx="65.5" cy="57" fill="#B4A7E5" rx="11" ry="11" style="stroke:#A80036;stroke-width:1.0;"/><path d="M66.4531,53.7813 L68.1719,53.7813 C68.5625,53.7813 68.75,53.75 68.875,53.6719 C69.1406,53.5156 69.2813,53.2344 69.2813,52.9375 C69.2813,52.6719 69.1719,52.4063 68.9375,52.2344 C68.7656,52.125 68.625,52.0938 68.1719,52.0938 L63.0313,52.0938 C62.5938,52.0938 62.4688,52.1094 62.3125,52.2031 C62.0625,52.3594 61.9063,52.6563 61.9063,52.9375 C61.9063,53.2188 62.0469,53.4688 62.2656,53.6406 C62.4219,53.75 62.6094,53.7813 63.0313,53.7813 L64.75,53.7813 L64.75,60.2969 L63.0313,60.2969 C62.5938,60.2969 62.4688,60.3125 62.3125,60.4219 C62.0625,60.5781 61.9063,60.8594 61.9063,61.1563 C61.9063,61.4063 62.0469,61.6719 62.2656,61.8281 C62.4219,61.9531 62.625,62 63.0313,62 L68.1719,62 C68.9219,62 69.2813,61.7188 69.2813,61.1563 C69.2813,60.875 69.1719,60.625 68.9375,60.4531 C68.7656,60.3281 68.625,60.2969 68.1719,60.2969 L66.4531,60.2969 L66.4531,53.7813 Z " fill="#000000"/><text fill="#000000" font-family="sans-serif" font-size="12" font-style="italic" lengthAdjust="spacing" textLength="121" x="79.5" y="61.1543">DevicePluginService</text><line style="stroke:#A80036;stroke-width:1.5;" x1="51.5" x2="202.5" y1="73" y2="73"/><line style="stroke:#A80036;stroke-width:1.5;" x1="51.5" x2="202.5" y1="81" y2="81"/><text fill="#000000" font-family="sans-serif" font-size="11" lengthAdjust="spacing" textLength="84" x="56.5" y="95.2104">ListAndWatch()</text><text fill="#000000" font-family="sans-serif" font-size="11" lengthAdjust="spacing" textLength="54" x="56.5" y="108.0151">Allocate()</text><rect fill="#FEFECE" filter="url(#f93s7t3wchd82)" height="33.9688" style="stroke:#A80036;stroke-width:1.5;" width="131" x="32.5" y="350.5"/><text fill="#000000" font-family="sans-serif" font-size="12" lengthAdjust="spacing" textLength="117" x="39.5" y="363.6387">device_plugin_main</text><line style="stroke:#A80036;stroke-width:1.5;" x1="33.5" x2="162.5" y1="368.4688" y2="368.4688"/><!--MD5=[c60af77fe5573b84a4aa4bce89659574]
class Server--><rect codeLine="11" fill="#FEFECE" filter="url(#f93s7t3wchd82)" height="60.8047" id="Server" style="stroke:#A80036;stroke-width:1.5;" width="71" x="80.5" y="199"/><ellipse cx="95.5" cy="215" fill="#B4A7E5" rx="11" ry="11" style="stroke:#A80036;stroke-width:1.0;"/><path d="M96.4531,211.7813 L98.1719,211.7813 C98.5625,211.7813 98.75,211.75 98.875,211.6719 C99.1406,211.5156 99.2813,211.2344 99.2813,210.9375 C99.2813,210.6719 99.1719,210.4063 98.9375,210.2344 C98.7656,210.125 98.625,210.0938 98.1719,210.0938 L93.0313,210.0938 C92.5938,210.0938 92.4688,210.1094 92.3125,210.2031 C92.0625,210.3594 91.9063,210.6563 91.9063,210.9375 C91.9063,211.2188 92.0469,211.4688 92.2656,211.6406 C92.4219,211.75 92.6094,211.7813 93.0313,211.7813 L94.75,211.7813 L94.75,218.2969 L93.0313,218.2969 C92.5938,218.2969 92.4688,218.3125 92.3125,218.4219 C92.0625,218.5781 91.9063,218.8594 91.9063,219.1563 C91.9063,219.4063 92.0469,219.6719 92.2656,219.8281 C92.4219,219.9531 92.625,220 93.0313,220 L98.1719,220 C98.9219,220 99.2813,219.7188 99.2813,219.1563 C99.2813,218.875 99.1719,218.625 98.9375,218.4531 C98.7656,218.3281 98.625,218.2969 98.1719,218.2969 L96.4531,218.2969 L96.4531,211.7813 Z " fill="#000000"/><text fill="#000000" font-family="sans-serif" font-size="12" font-style="italic" lengthAdjust="spacing" textLength="39" x="109.5" y="219.1543">Server</text><line style="stroke:#A80036;stroke-width:1.5;" x1="81.5" x2="150.5" y1="231" y2="231"/><line style="stroke:#A80036;stroke-width:1.5;" x1="81.5" x2="150.5" y1="239" y2="239"/><text fill="#000000" font-family="sans-serif" font-size="11" lengthAdjust="spacing" textLength="29" x="86.5" y="253.2104">Run()</text><!--MD5=[172688bfccf5fdce65ae65f250020596]
class DeviceGetter--><rect codeLine="14" fill="#FEFECE" filter="url(#f93s7t3wchd82)" height="60.8047" id="DeviceGetter" style="stroke:#A80036;stroke-width:1.5;" width="110" x="318" y="337"/><ellipse cx="333" cy="353" fill="#B4A7E5" rx="11" ry="11" style="stroke:#A80036;stroke-width:1.0;"/><path d="M333.9531,349.7813 L335.6719,349.7813 C336.0625,349.7813 336.25,349.75 336.375,349.6719 C336.6406,349.5156 336.7813,349.2344 336.7813,348.9375 C336.7813,348.6719 336.6719,348.4063 336.4375,348.2344 C336.2656,348.125 336.125,348.0938 335.6719,348.0938 L330.5313,348.0938 C330.0938,348.0938 329.9688,348.1094 329.8125,348.2031 C329.5625,348.3594 329.4063,348.6563 329.4063,348.9375 C329.4063,349.2188 329.5469,349.4688 329.7656,349.6406 C329.9219,349.75 330.1094,349.7813 330.5313,349.7813 L332.25,349.7813 L332.25,356.2969 L330.5313,356.2969 C330.0938,356.2969 329.9688,356.3125 329.8125,356.4219 C329.5625,356.5781 329.4063,356.8594 329.4063,357.1563 C329.4063,357.4063 329.5469,357.6719 329.7656,357.8281 C329.9219,357.9531 330.125,358 330.5313,358 L335.6719,358 C336.4219,358 336.7813,357.7188 336.7813,357.1563 C336.7813,356.875 336.6719,356.625 336.4375,356.4531 C336.2656,356.3281 336.125,356.2969 335.6719,356.2969 L333.9531,356.2969 L333.9531,349.7813 Z " fill="#000000"/><text fill="#000000" font-family="sans-serif" font-size="12" font-style="italic" lengthAdjust="spacing" textLength="78" x="347" y="357.1543">DeviceGetter</text><line style="stroke:#A80036;stroke-width:1.5;" x1="319" x2="427" y1="369" y2="369"/><line style="stroke:#A80036;stroke-width:1.5;" x1="319" x2="427" y1="377" y2="377"/><text fill="#000000" font-family="sans-serif" font-size="11" lengthAdjust="spacing" textLength="76" x="324" y="391.2104">GetDevices()</text><!--MD5=[9a833e81b016cf94cee1a24d2e73b9e5]
class Allocator--><rect codeLine="17" fill="#FEFECE" filter="url(#f93s7t3wchd82)" height="60.8047" id="Allocator" style="stroke:#A80036;stroke-width:1.5;" width="84" x="199" y="337"/><ellipse cx="214" cy="353" fill="#B4A7E5" rx="11" ry="11" style="stroke:#A80036;stroke-width:1.0;"/><path d="M214.9531,349.7813 L216.6719,349.7813 C217.0625,349.7813 217.25,349.75 217.375,349.6719 C217.6406,349.5156 217.7813,349.2344 217.7813,348.9375 C217.7813,348.6719 217.6719,348.4063 217.4375,348.2344 C217.2656,348.125 217.125,348.0938 216.6719,348.0938 L211.5313,348.0938 C211.0938,348.0938 210.9688,348.1094 210.8125,348.2031 C210.5625,348.3594 210.4063,348.6563 210.4063,348.9375 C210.4063,349.2188 210.5469,349.4688 210.7656,349.6406 C210.9219,349.75 211.1094,349.7813 211.5313,349.7813 L213.25,349.7813 L213.25,356.2969 L211.5313,356.2969 C211.0938,356.2969 210.9688,356.3125 210.8125,356.4219 C210.5625,356.5781 210.4063,356.8594 210.4063,357.1563 C210.4063,357.4063 210.5469,357.6719 210.7656,357.8281 C210.9219,357.9531 211.125,358 211.5313,358 L216.6719,358 C217.4219,358 217.7813,357.7188 217.7813,357.1563 C217.7813,356.875 217.6719,356.625 217.4375,356.4531 C217.2656,356.3281 217.125,356.2969 216.6719,356.2969 L214.9531,356.2969 L214.9531,349.7813 Z " fill="#000000"/><text fill="#000000" font-family="sans-serif" font-size="12" font-style="italic" lengthAdjust="spacing" textLength="52" x="228" y="357.1543">Allocator</text><line style="stroke:#A80036;stroke-width:1.5;" x1="200" x2="282" y1="369" y2="369"/><line style="stroke:#A80036;stroke-width:1.5;" x1="200" x2="282" y1="377" y2="377"/><text fill="#000000" font-family="sans-serif" font-size="11" lengthAdjust="spacing" textLength="54" x="205" y="391.2104">Allocate()</text><!--MD5=[502c11a8d89bc0d7c76becabd2f6c27d]
class LynxiDockerAlloc--><rect codeLine="20" fill="#FEFECE" filter="url(#f93s7t3wchd82)" height="60.8047" id="LynxiDockerAlloc" style="stroke:#A80036;stroke-width:1.5;" width="135" x="173.5" y="473.5"/><ellipse cx="188.5" cy="489.5" fill="#ADD1B2" rx="11" ry="11" style="stroke:#A80036;stroke-width:1.0;"/><path d="M190.8438,485.1719 C189.9063,484.7344 189.3125,484.5938 188.4375,484.5938 C185.8125,484.5938 183.8125,486.6719 183.8125,489.3906 L183.8125,490.5156 C183.8125,493.0938 185.9219,494.9844 188.8125,494.9844 C190.0313,494.9844 191.1875,494.6875 191.9375,494.1406 C192.5156,493.7344 192.8438,493.2813 192.8438,492.8906 C192.8438,492.4375 192.4531,492.0469 191.9844,492.0469 C191.7656,492.0469 191.5625,492.125 191.375,492.3125 C190.9219,492.7969 190.9219,492.7969 190.7344,492.8906 C190.3125,493.1563 189.625,493.2813 188.8594,493.2813 C186.8125,493.2813 185.5156,492.1875 185.5156,490.4844 L185.5156,489.3906 C185.5156,487.6094 186.7656,486.2969 188.5,486.2969 C189.0781,486.2969 189.6875,486.4531 190.1563,486.7031 C190.6406,486.9844 190.8125,487.2031 190.9063,487.6094 C190.9688,488.0156 191,488.1406 191.1406,488.2656 C191.2813,488.4063 191.5156,488.5156 191.7344,488.5156 C192,488.5156 192.2656,488.375 192.4375,488.1563 C192.5469,488 192.5781,487.8125 192.5781,487.3906 L192.5781,485.9688 C192.5781,485.5313 192.5625,485.4063 192.4688,485.25 C192.3125,484.9844 192.0313,484.8438 191.7344,484.8438 C191.4375,484.8438 191.2344,484.9375 191.0156,485.25 L190.8438,485.1719 Z " fill="#000000"/><text fill="#000000" font-family="sans-serif" font-size="12" lengthAdjust="spacing" textLength="103" x="202.5" y="493.6543">LynxiDockerAlloc</text><line style="stroke:#A80036;stroke-width:1.5;" x1="174.5" x2="307.5" y1="505.5" y2="505.5"/><text fill="#000000" font-family="sans-serif" font-size="11" lengthAdjust="spacing" textLength="76" x="179.5" y="519.7104">根据id设置参数</text><line style="stroke:#A80036;stroke-width:1.5;" x1="174.5" x2="307.5" y1="526.3047" y2="526.3047"/><!--MD5=[dbb8b4f13c7b21394f9d757e58732f45]
class Service--><rect codeLine="23" fill="#FEFECE" filter="url(#f93s7t3wchd82)" height="48" id="Service" style="stroke:#A80036;stroke-width:1.5;" width="78" x="202" y="205.5"/><ellipse cx="217" cy="221.5" fill="#ADD1B2" rx="11" ry="11" style="stroke:#A80036;stroke-width:1.0;"/><path d="M219.3438,217.1719 C218.4063,216.7344 217.8125,216.5938 216.9375,216.5938 C214.3125,216.5938 212.3125,218.6719 212.3125,221.3906 L212.3125,222.5156 C212.3125,225.0938 214.4219,226.9844 217.3125,226.9844 C218.5313,226.9844 219.6875,226.6875 220.4375,226.1406 C221.0156,225.7344 221.3438,225.2813 221.3438,224.8906 C221.3438,224.4375 220.9531,224.0469 220.4844,224.0469 C220.2656,224.0469 220.0625,224.125 219.875,224.3125 C219.4219,224.7969 219.4219,224.7969 219.2344,224.8906 C218.8125,225.1563 218.125,225.2813 217.3594,225.2813 C215.3125,225.2813 214.0156,224.1875 214.0156,222.4844 L214.0156,221.3906 C214.0156,219.6094 215.2656,218.2969 217,218.2969 C217.5781,218.2969 218.1875,218.4531 218.6563,218.7031 C219.1406,218.9844 219.3125,219.2031 219.4063,219.6094 C219.4688,220.0156 219.5,220.1406 219.6406,220.2656 C219.7813,220.4063 220.0156,220.5156 220.2344,220.5156 C220.5,220.5156 220.7656,220.375 220.9375,220.1563 C221.0469,220 221.0781,219.8125 221.0781,219.3906 L221.0781,217.9688 C221.0781,217.5313 221.0625,217.4063 220.9688,217.25 C220.8125,216.9844 220.5313,216.8438 220.2344,216.8438 C219.9375,216.8438 219.7344,216.9375 219.5156,217.25 L219.3438,217.1719 Z " fill="#000000"/><text fill="#000000" font-family="sans-serif" font-size="12" lengthAdjust="spacing" textLength="46" x="231" y="225.6543">Service</text><line style="stroke:#A80036;stroke-width:1.5;" x1="203" x2="279" y1="237.5" y2="237.5"/><line style="stroke:#A80036;stroke-width:1.5;" x1="203" x2="279" y1="245.5" y2="245.5"/><!--MD5=[dcea3864ff63e80baf8efd25d1063326]
class SMI--><rect codeLine="32" fill="#FEFECE" filter="url(#f93s7t3wchd82)" height="48" id="SMI" style="stroke:#A80036;stroke-width:1.5;" width="54" x="484" y="480"/><ellipse cx="499" cy="496" fill="#B4A7E5" rx="11" ry="11" style="stroke:#A80036;stroke-width:1.0;"/><path d="M499.9531,492.7813 L501.6719,492.7813 C502.0625,492.7813 502.25,492.75 502.375,492.6719 C502.6406,492.5156 502.7813,492.2344 502.7813,491.9375 C502.7813,491.6719 502.6719,491.4063 502.4375,491.2344 C502.2656,491.125 502.125,491.0938 501.6719,491.0938 L496.5313,491.0938 C496.0938,491.0938 495.9688,491.1094 495.8125,491.2031 C495.5625,491.3594 495.4063,491.6563 495.4063,491.9375 C495.4063,492.2188 495.5469,492.4688 495.7656,492.6406 C495.9219,492.75 496.1094,492.7813 496.5313,492.7813 L498.25,492.7813 L498.25,499.2969 L496.5313,499.2969 C496.0938,499.2969 495.9688,499.3125 495.8125,499.4219 C495.5625,499.5781 495.4063,499.8594 495.4063,500.1563 C495.4063,500.4063 495.5469,500.6719 495.7656,500.8281 C495.9219,500.9531 496.125,501 496.5313,501 L501.6719,501 C502.4219,501 502.7813,500.7188 502.7813,500.1563 C502.7813,499.875 502.6719,499.625 502.4375,499.4531 C502.2656,499.3281 502.125,499.2969 501.6719,499.2969 L499.9531,499.2969 L499.9531,492.7813 Z " fill="#000000"/><text fill="#000000" font-family="sans-serif" font-size="12" font-style="italic" lengthAdjust="spacing" textLength="22" x="513" y="500.1543">SMI</text><line style="stroke:#A80036;stroke-width:1.5;" x1="485" x2="537" y1="512" y2="512"/><line style="stroke:#A80036;stroke-width:1.5;" x1="485" x2="537" y1="520" y2="520"/><!--MD5=[ab9d706e3259e2f1e286006acb80aa09]
link Server to device_plugin_main--><path codeLine="24" d="M112.094,260.01 C109.063,282.912 104.882,314.499 101.862,337.318 " fill="none" id="Server-to-device_plugin_main" style="stroke:#A80036;stroke-width:1.0;"/><polygon fill="#A80036" points="100.153,350.237,104.9057,344.8137,101.7275,338.3407,96.9748,343.764,100.153,350.237" style="stroke:#A80036;stroke-width:1.0;"/><text fill="#000000" font-family="sans-serif" font-size="13" lengthAdjust="spacing" textLength="25" x="109" y="303.0669">Run</text><!--MD5=[2d368141dcc50ed1696a07a14ddb7cac]
reverse link Service to DeviceGetter--><path codeLine="25" d="M272.53,262.986 C294.244,285.357 322.877,314.858 344.019,336.641 " fill="none" id="Service-backto-DeviceGetter" style="stroke:#A80036;stroke-width:1.0;"/><polygon fill="#A80036" points="263.392,253.571,264.7006,260.6624,271.7497,262.1819,270.4412,255.0905,263.392,253.571" style="stroke:#A80036;stroke-width:1.0;"/><!--MD5=[6d80c893a1fb414209843125e30597db]
reverse link Service to Allocator--><path codeLine="26" d="M241,266.657 C241,288.51 241,316.03 241,336.641 " fill="none" id="Service-backto-Allocator" style="stroke:#A80036;stroke-width:1.0;"/><polygon fill="#A80036" points="241,253.571,237,259.571,241,265.571,245,259.571,241,253.571" style="stroke:#A80036;stroke-width:1.0;"/><!--MD5=[29269baaa77f5c4f1786ed3068a15468]
reverse link Allocator to LynxiDockerAlloc--><path codeLine="27" d="M241,418.084 C241,436.548 241,456.924 241,473.0875 " fill="none" id="Allocator-backto-LynxiDockerAlloc" style="stroke:#A80036;stroke-width:1.0;"/><polygon fill="none" points="234,418.017,241,398.017,248,418.017,234,418.017" style="stroke:#A80036;stroke-width:1.0;"/><!--MD5=[9d2daf0af49e51c420523f05bb6021be]
link Service to DevicePluginService--><path codeLine="29" d="M223.242,205.212 C208.176,185.455 186.002,156.375 166.734,131.108 " fill="none" id="Service-to-DevicePluginService" style="stroke:#A80036;stroke-width:1.0;"/><polygon fill="none" points="161.157,135.338,154.596,115.19,172.29,126.849,161.157,135.338" style="stroke:#A80036;stroke-width:1.0;"/><!--MD5=[69d7462d0f10d1becfbe6bd6f0ee9435]
link DevicePluginService to Server--><path codeLine="30" d="M124.337,115.19 C122.779,136.372 120.801,163.244 119.164,185.502 " fill="none" id="DevicePluginService-to-Server" style="stroke:#A80036;stroke-width:1.0;"/><polygon fill="#A80036" points="118.195,198.673,122.6247,192.9828,119.0759,186.7054,114.6463,192.3955,118.195,198.673" style="stroke:#A80036;stroke-width:1.0;"/><!--MD5=[91dd1897713a9fe2a0857a9116a10dfc]
reverse link DeviceGetter to SMI--><path codeLine="34" d="M418.249,412.02 C426.817,420.299 435.696,428.904 444,437 C458.497,451.133 474.67,467.0597 487.493,479.7263 " fill="none" id="DeviceGetter-backto-SMI" style="stroke:#A80036;stroke-width:1.0;"/><polygon fill="none" points="413.355,417.025,403.821,398.102,423.075,406.949,413.355,417.025" style="stroke:#A80036;stroke-width:1.0;"/><!--MD5=[1c17c28db9a129b2d84760aaf1ccc656]
@startuml
package Kubelet {
    interface DevicePluginService {
        ListAndWatch()
        Allocate()
    }
}
package lynxi_k8s_device_plugin {
    object device_plugin_main {

    }
    interface Server {
        Run()
    }
    interface DeviceGetter {
        GetDevices()
    }
    interface Allocator {
        Allocate()
    }
    class LynxiDockerAlloc {
        根据id设置参数
    }
    class Service {}
    device_plugin_main *-up- Server: Run
    Service *- - DeviceGetter
    Service *- - Allocator
    LynxiDockerAlloc -up-|> Allocator
}
Service - -|> DevicePluginService
DevicePluginService - -* Server
package lynxi_tools {
    interface SMI{}
}
SMI -up-|> DeviceGetter
@enduml

PlantUML version 1.2022.1beta4(Unknown compile time)
(GPL source distribution)
Java Runtime: Java(TM) SE Runtime Environment
JVM: Java HotSpot(TM) 64-Bit Server VM
Default Encoding: UTF-8
Language: en
Country: US
--></g></svg>