<?xml version="1.0" encoding="UTF-8" standalone="no"?><svg xmlns="http://www.w3.org/2000/svg" xmlns:xlink="http://www.w3.org/1999/xlink" contentScriptType="application/ecmascript" contentStyleType="text/css" height="490px" preserveAspectRatio="none" style="width:651px;height:490px;background:#FFFFFF;" version="1.1" viewBox="0 0 651 490" width="651px" zoomAndPan="magnify"><defs><filter height="300%" id="f13viz8roqra1r" width="300%" x="-1" y="-1"><feGaussianBlur result="blurOut" stdDeviation="2.0"/><feColorMatrix in="blurOut" result="blurOut2" type="matrix" values="0 0 0 0 0 0 0 0 0 0 0 0 0 0 0 0 0 0 .4 0"/><feOffset dx="4.0" dy="4.0" in="blurOut2" result="blurOut3"/><feBlend in="SourceGraphic" in2="blurOut3" mode="normal"/></filter></defs><g><!--MD5=[aceae7737205d5cdf150c165de86d91c]
cluster lynxi_exporter--><polygon fill="#FFFFFF" filter="url(#f13viz8roqra1r)" points="16,6,136,6,143,28.2969,493,28.2969,493,483.5,16,483.5,16,6" style="stroke:#000000;stroke-width:1.5;"/><line style="stroke:#000000;stroke-width:1.5;" x1="16" x2="143" y1="28.2969" y2="28.2969"/><text fill="#000000" font-family="sans-serif" font-size="14" font-weight="bold" lengthAdjust="spacing" textLength="114" x="20" y="20.9951">lynxi_exporter</text><!--MD5=[5063e4f83bceb2e2519cbf71bd38c24e]
cluster metrics--><polygon fill="#FFFFFF" filter="url(#f13viz8roqra1r)" points="56,154,124,154,131,176.2969,445,176.2969,445,443.5,56,443.5,56,154" style="stroke:#000000;stroke-width:1.5;"/><line style="stroke:#000000;stroke-width:1.5;" x1="56" x2="131" y1="176.2969" y2="176.2969"/><text fill="#000000" font-family="sans-serif" font-size="14" font-weight="bold" lengthAdjust="spacing" textLength="62" x="60" y="168.9951">metrics</text><!--MD5=[5dd897bbb138c26bca2ae5885d0c2570]
cluster lynxi_tools--><polygon fill="#FFFFFF" filter="url(#f13viz8roqra1r)" points="525,330,618,330,625,352.2969,628,352.2969,628,429,525,429,525,330" style="stroke:#000000;stroke-width:1.5;"/><line style="stroke:#000000;stroke-width:1.5;" x1="525" x2="625" y1="352.2969" y2="352.2969"/><text fill="#000000" font-family="sans-serif" font-size="14" font-weight="bold" lengthAdjust="spacing" textLength="87" x="529" y="344.9951">lynxi_tools</text><polygon fill="#FFFFFF" filter="url(#f13viz8roqra1r)" points="517.5,213.5,620.5,213.5,627.5,235.7969,634.5,235.7969,634.5,266.0938,517.5,266.0938,517.5,213.5" style="stroke:#000000;stroke-width:1.5;"/><line style="stroke:#000000;stroke-width:1.5;" x1="517.5" x2="627.5" y1="235.7969" y2="235.7969"/><text fill="#000000" font-family="sans-serif" font-size="14" font-weight="bold" lengthAdjust="spacing" textLength="97" x="521.5" y="228.4951">prometheus</text><rect fill="#FEFECE" filter="url(#f13viz8roqra1r)" height="33.9688" style="stroke:#A80036;stroke-width:1.5;" width="134" x="316" y="49"/><text fill="#000000" font-family="sans-serif" font-size="12" lengthAdjust="spacing" textLength="120" x="323" y="62.1387">lynxi_exporter_main</text><line style="stroke:#A80036;stroke-width:1.5;" x1="317" x2="449" y1="66.9688" y2="66.9688"/><!--MD5=[67d55cb799d9640d9c582a8cc2c589ce]
class Metric--><rect codeLine="7" fill="#FEFECE" filter="url(#f13viz8roqra1r)" height="60.8047" id="Metric" style="stroke:#A80036;stroke-width:1.5;" width="69" x="284.5" y="358.5"/><ellipse cx="299.5" cy="374.5" fill="#B4A7E5" rx="11" ry="11" style="stroke:#A80036;stroke-width:1.0;"/><path d="M300.4531,371.2813 L302.1719,371.2813 C302.5625,371.2813 302.75,371.25 302.875,371.1719 C303.1406,371.0156 303.2813,370.7344 303.2813,370.4375 C303.2813,370.1719 303.1719,369.9063 302.9375,369.7344 C302.7656,369.625 302.625,369.5938 302.1719,369.5938 L297.0313,369.5938 C296.5938,369.5938 296.4688,369.6094 296.3125,369.7031 C296.0625,369.8594 295.9063,370.1563 295.9063,370.4375 C295.9063,370.7188 296.0469,370.9688 296.2656,371.1406 C296.4219,371.25 296.6094,371.2813 297.0313,371.2813 L298.75,371.2813 L298.75,377.7969 L297.0313,377.7969 C296.5938,377.7969 296.4688,377.8125 296.3125,377.9219 C296.0625,378.0781 295.9063,378.3594 295.9063,378.6563 C295.9063,378.9063 296.0469,379.1719 296.2656,379.3281 C296.4219,379.4531 296.625,379.5 297.0313,379.5 L302.1719,379.5 C302.9219,379.5 303.2813,379.2188 303.2813,378.6563 C303.2813,378.375 303.1719,378.125 302.9375,377.9531 C302.7656,377.8281 302.625,377.7969 302.1719,377.7969 L300.4531,377.7969 L300.4531,371.2813 Z " fill="#000000"/><text fill="#000000" font-family="sans-serif" font-size="12" font-style="italic" lengthAdjust="spacing" textLength="37" x="313.5" y="378.6543">Metric</text><line style="stroke:#A80036;stroke-width:1.5;" x1="285.5" x2="352.5" y1="390.5" y2="390.5"/><line style="stroke:#A80036;stroke-width:1.5;" x1="285.5" x2="352.5" y1="398.5" y2="398.5"/><text fill="#000000" font-family="sans-serif" font-size="11" lengthAdjust="spacing" textLength="47" x="290.5" y="412.7104">Record()</text><!--MD5=[92c3b83ebc358b99645c50ce1e0a919a]
class States--><rect codeLine="10" fill="#FEFECE" filter="url(#f13viz8roqra1r)" height="86.4141" id="States" style="stroke:#A80036;stroke-width:1.5;" width="125" x="276.5" y="197"/><ellipse cx="316.25" cy="213" fill="#ADD1B2" rx="11" ry="11" style="stroke:#A80036;stroke-width:1.0;"/><path d="M318.5938,208.6719 C317.6563,208.2344 317.0625,208.0938 316.1875,208.0938 C313.5625,208.0938 311.5625,210.1719 311.5625,212.8906 L311.5625,214.0156 C311.5625,216.5938 313.6719,218.4844 316.5625,218.4844 C317.7813,218.4844 318.9375,218.1875 319.6875,217.6406 C320.2656,217.2344 320.5938,216.7813 320.5938,216.3906 C320.5938,215.9375 320.2031,215.5469 319.7344,215.5469 C319.5156,215.5469 319.3125,215.625 319.125,215.8125 C318.6719,216.2969 318.6719,216.2969 318.4844,216.3906 C318.0625,216.6563 317.375,216.7813 316.6094,216.7813 C314.5625,216.7813 313.2656,215.6875 313.2656,213.9844 L313.2656,212.8906 C313.2656,211.1094 314.5156,209.7969 316.25,209.7969 C316.8281,209.7969 317.4375,209.9531 317.9063,210.2031 C318.3906,210.4844 318.5625,210.7031 318.6563,211.1094 C318.7188,211.5156 318.75,211.6406 318.8906,211.7656 C319.0313,211.9063 319.2656,212.0156 319.4844,212.0156 C319.75,212.0156 320.0156,211.875 320.1875,211.6563 C320.2969,211.5 320.3281,211.3125 320.3281,210.8906 L320.3281,209.4688 C320.3281,209.0313 320.3125,208.9063 320.2188,208.75 C320.0625,208.4844 319.7813,208.3438 319.4844,208.3438 C319.1875,208.3438 318.9844,208.4375 318.7656,208.75 L318.5938,208.6719 Z " fill="#000000"/><text fill="#000000" font-family="sans-serif" font-size="12" lengthAdjust="spacing" textLength="38" x="335.75" y="217.1543">States</text><line style="stroke:#A80036;stroke-width:1.5;" x1="277.5" x2="400.5" y1="229" y2="229"/><text fill="#000000" font-family="sans-serif" font-size="11" lengthAdjust="spacing" textLength="107" x="282.5" y="243.2104">lynxi_device_state</text><text fill="#000000" font-family="sans-serif" font-size="11" lengthAdjust="spacing" textLength="113" x="282.5" y="256.0151">lynxi_expoter_state</text><text fill="#000000" font-family="sans-serif" font-size="11" lengthAdjust="spacing" textLength="88" x="282.5" y="268.8198">lynxi_smi_state</text><line style="stroke:#A80036;stroke-width:1.5;" x1="277.5" x2="400.5" y1="275.4141" y2="275.4141"/><!--MD5=[684a6739dd316dfc7bc0cd3365d2e473]
class Usages--><rect codeLine="15" fill="#FEFECE" filter="url(#f13viz8roqra1r)" height="86.4141" id="Usages" style="stroke:#A80036;stroke-width:1.5;" width="161" x="80.5" y="197"/><ellipse cx="133.75" cy="213" fill="#ADD1B2" rx="11" ry="11" style="stroke:#A80036;stroke-width:1.0;"/><path d="M136.0938,208.6719 C135.1563,208.2344 134.5625,208.0938 133.6875,208.0938 C131.0625,208.0938 129.0625,210.1719 129.0625,212.8906 L129.0625,214.0156 C129.0625,216.5938 131.1719,218.4844 134.0625,218.4844 C135.2813,218.4844 136.4375,218.1875 137.1875,217.6406 C137.7656,217.2344 138.0938,216.7813 138.0938,216.3906 C138.0938,215.9375 137.7031,215.5469 137.2344,215.5469 C137.0156,215.5469 136.8125,215.625 136.625,215.8125 C136.1719,216.2969 136.1719,216.2969 135.9844,216.3906 C135.5625,216.6563 134.875,216.7813 134.1094,216.7813 C132.0625,216.7813 130.7656,215.6875 130.7656,213.9844 L130.7656,212.8906 C130.7656,211.1094 132.0156,209.7969 133.75,209.7969 C134.3281,209.7969 134.9375,209.9531 135.4063,210.2031 C135.8906,210.4844 136.0625,210.7031 136.1563,211.1094 C136.2188,211.5156 136.25,211.6406 136.3906,211.7656 C136.5313,211.9063 136.7656,212.0156 136.9844,212.0156 C137.25,212.0156 137.5156,211.875 137.6875,211.6563 C137.7969,211.5 137.8281,211.3125 137.8281,210.8906 L137.8281,209.4688 C137.8281,209.0313 137.8125,208.9063 137.7188,208.75 C137.5625,208.4844 137.2813,208.3438 136.9844,208.3438 C136.6875,208.3438 136.4844,208.4375 136.2656,208.75 L136.0938,208.6719 Z " fill="#000000"/><text fill="#000000" font-family="sans-serif" font-size="12" lengthAdjust="spacing" textLength="46" x="154.25" y="217.1543">Usages</text><line style="stroke:#A80036;stroke-width:1.5;" x1="81.5" x2="240.5" y1="229" y2="229"/><text fill="#000000" font-family="sans-serif" font-size="11" lengthAdjust="spacing" textLength="140" x="86.5" y="243.2104">lynxi_device_apu_usage</text><text fill="#000000" font-family="sans-serif" font-size="11" lengthAdjust="spacing" textLength="139" x="86.5" y="256.0151">lynxi_device_cpu_usage</text><text fill="#000000" font-family="sans-serif" font-size="11" lengthAdjust="spacing" textLength="149" x="86.5" y="268.8198">lynxi_device_mem_usage</text><line style="stroke:#A80036;stroke-width:1.5;" x1="81.5" x2="240.5" y1="275.4141" y2="275.4141"/><!--MD5=[65f4cbd45ea059f154ee9aed0940482c]
class DetailStates--><rect codeLine="20" fill="#FEFECE" filter="url(#f13viz8roqra1r)" height="60.8047" id="DetailStates" style="stroke:#A80036;stroke-width:1.5;" width="162" x="87" y="358.5"/><ellipse cx="128.1" cy="374.5" fill="#ADD1B2" rx="11" ry="11" style="stroke:#A80036;stroke-width:1.0;"/><path d="M130.4438,370.1719 C129.5063,369.7344 128.9125,369.5938 128.0375,369.5938 C125.4125,369.5938 123.4125,371.6719 123.4125,374.3906 L123.4125,375.5156 C123.4125,378.0938 125.5219,379.9844 128.4125,379.9844 C129.6313,379.9844 130.7875,379.6875 131.5375,379.1406 C132.1156,378.7344 132.4438,378.2813 132.4438,377.8906 C132.4438,377.4375 132.0531,377.0469 131.5844,377.0469 C131.3656,377.0469 131.1625,377.125 130.975,377.3125 C130.5219,377.7969 130.5219,377.7969 130.3344,377.8906 C129.9125,378.1563 129.225,378.2813 128.4594,378.2813 C126.4125,378.2813 125.1156,377.1875 125.1156,375.4844 L125.1156,374.3906 C125.1156,372.6094 126.3656,371.2969 128.1,371.2969 C128.6781,371.2969 129.2875,371.4531 129.7563,371.7031 C130.2406,371.9844 130.4125,372.2031 130.5063,372.6094 C130.5688,373.0156 130.6,373.1406 130.7406,373.2656 C130.8813,373.4063 131.1156,373.5156 131.3344,373.5156 C131.6,373.5156 131.8656,373.375 132.0375,373.1563 C132.1469,373 132.1781,372.8125 132.1781,372.3906 L132.1781,370.9688 C132.1781,370.5313 132.1625,370.4063 132.0688,370.25 C131.9125,369.9844 131.6313,369.8438 131.3344,369.8438 C131.0375,369.8438 130.8344,369.9375 130.6156,370.25 L130.4438,370.1719 Z " fill="#000000"/><text fill="#000000" font-family="sans-serif" font-size="12" lengthAdjust="spacing" textLength="72" x="147.9" y="378.6543">DetailStates</text><line style="stroke:#A80036;stroke-width:1.5;" x1="88" x2="248" y1="390.5" y2="390.5"/><text fill="#000000" font-family="sans-serif" font-size="11" lengthAdjust="spacing" textLength="150" x="93" y="404.7104">lynxi_device_temperature</text><line style="stroke:#A80036;stroke-width:1.5;" x1="88" x2="248" y1="411.3047" y2="411.3047"/><!--MD5=[dcea3864ff63e80baf8efd25d1063326]
class SMI--><rect codeLine="31" fill="#FEFECE" filter="url(#f13viz8roqra1r)" height="48" id="SMI" style="stroke:#A80036;stroke-width:1.5;" width="54" x="541" y="365"/><ellipse cx="556" cy="381" fill="#B4A7E5" rx="11" ry="11" style="stroke:#A80036;stroke-width:1.0;"/><path d="M556.9531,377.7813 L558.6719,377.7813 C559.0625,377.7813 559.25,377.75 559.375,377.6719 C559.6406,377.5156 559.7813,377.2344 559.7813,376.9375 C559.7813,376.6719 559.6719,376.4063 559.4375,376.2344 C559.2656,376.125 559.125,376.0938 558.6719,376.0938 L553.5313,376.0938 C553.0938,376.0938 552.9688,376.1094 552.8125,376.2031 C552.5625,376.3594 552.4063,376.6563 552.4063,376.9375 C552.4063,377.2188 552.5469,377.4688 552.7656,377.6406 C552.9219,377.75 553.1094,377.7813 553.5313,377.7813 L555.25,377.7813 L555.25,384.2969 L553.5313,384.2969 C553.0938,384.2969 552.9688,384.3125 552.8125,384.4219 C552.5625,384.5781 552.4063,384.8594 552.4063,385.1563 C552.4063,385.4063 552.5469,385.6719 552.7656,385.8281 C552.9219,385.9531 553.125,386 553.5313,386 L558.6719,386 C559.4219,386 559.7813,385.7188 559.7813,385.1563 C559.7813,384.875 559.6719,384.625 559.4375,384.4531 C559.2656,384.3281 559.125,384.2969 558.6719,384.2969 L556.9531,384.2969 L556.9531,377.7813 Z " fill="#000000"/><text fill="#000000" font-family="sans-serif" font-size="12" font-style="italic" lengthAdjust="spacing" textLength="22" x="570" y="385.1543">SMI</text><line style="stroke:#A80036;stroke-width:1.5;" x1="542" x2="594" y1="397" y2="397"/><line style="stroke:#A80036;stroke-width:1.5;" x1="542" x2="594" y1="405" y2="405"/><!--MD5=[32c32e43df63f0e8fb5138e83e502ec8]
link States to Metric--><path codeLine="23" d="M333.269,283.124 C330.913,300.442 328.167,320.621 325.717,338.627 " fill="none" id="States-to-Metric" style="stroke:#A80036;stroke-width:1.0;"/><polygon fill="none" points="332.651,339.591,323.018,358.465,318.779,337.704,332.651,339.591" style="stroke:#A80036;stroke-width:1.0;"/><!--MD5=[675b0e5abf66e71f8cc0f1dbfb971d45]
link Usages to Metric--><path codeLine="24" d="M220.531,283.011 C235.95,294.924 252.11,308.379 266,322 C272.551,328.424 279.059,335.641 285.156,342.882 " fill="none" id="Usages-to-Metric" style="stroke:#A80036;stroke-width:1.0;"/><polygon fill="none" points="290.616,338.501,297.702,358.471,279.709,347.278,290.616,338.501" style="stroke:#A80036;stroke-width:1.0;"/><!--MD5=[48f2afc95ec3b96bf01cd351fc19d19b]
link DetailStates to Metric--><path codeLine="25" d="M249.104,389 C254.148,389 259.193,389 264.238,389 " fill="none" id="DetailStates-to-Metric" style="stroke:#A80036;stroke-width:1.0;"/><polygon fill="none" points="264.325,382,284.325,389,264.325,396,264.325,382" style="stroke:#A80036;stroke-width:1.0;"/><!--MD5=[63c8d1c3cf2b0bd870be55a5be473b0b]
reverse link lynxi_exporter_main to metrics--><path codeLine="27" d="M398.917,94.837 C405.658,107.64 413.075,123.236 418,138 C418.8751,140.6234 419.7139,143.2995 420.5176,146.0121 C420.9194,147.3684 421.3125,148.7338 421.6969,150.1064 C421.8891,150.7927 422.0792,151.4808 422.2671,152.1704 C422.361,152.5153 422.4545,152.8605 422.5474,153.206 C422.5938,153.3788 422.6401,153.5516 422.6863,153.7246 " fill="none" id="lynxi_exporter_main-backto-metrics" style="stroke:#A80036;stroke-width:1.0;"/><polygon fill="#A80036" points="392.52,83.1,391.8793,90.2826,398.263,93.6365,398.9037,86.4539,392.52,83.1" style="stroke:#A80036;stroke-width:1.0;"/><text fill="#000000" font-family="sans-serif" font-size="13" lengthAdjust="spacing" textLength="45" x="417" y="126.0669">Record</text><!--MD5=[e54e5bf4c54fd39502935bbe274e1a06]
link lynxi_exporter to prometheus--><path d="M493.1472,82.3996 C493.2873,82.6644 493.4289,82.932 493.572,83.2024 C493.8581,83.7433 494.1502,84.2953 494.448,84.8581 C495.0435,85.9838 495.662,87.1527 496.3017,88.3619 C497.5813,90.7804 498.9461,93.36 500.3837,96.0773 C503.259,101.5118 506.4255,107.4968 509.7834,113.8436 C523.215,139.2308 539.709,170.406 552.875,195.291 " fill="none" id="lynxi_exporter-to-prometheus" style="stroke:#A80036;stroke-width:1.0;"/><polygon fill="none" points="559.208,192.292,562.373,213.244,546.833,198.839,559.208,192.292" style="stroke:#A80036;stroke-width:1.0;"/><!--MD5=[f4c2f018ec219c2fc4b365210aea3ec4]
reverse link metrics to SMI--><path codeLine="33" d="M445.2586,250.2674 C446.8128,252.0114 448.5575,253.9692 450.4678,256.1127 C458.1086,264.6866 468.3963,276.2308 479.7218,288.9395 C502.3728,314.357 529.175,344.433 547.256,364.723 " fill="none" id="metrics-backto-SMI" style="stroke:#A80036;stroke-width:1.0;"/><polygon fill="#A80036" points="445.2586,250.2674,446.2642,257.408,453.2424,259.2261,452.2367,252.0855,445.2586,250.2674" style="stroke:#A80036;stroke-width:1.0;"/><!--MD5=[4e963228cf48e1b66a55aeaa730aba33]
@startuml
package prometheus {}
package lynxi_exporter {
    object lynxi_exporter_main {
        
    }
    package metrics {
        interface Metric {
            Record()
        }
        class States {
            lynxi_device_state
            lynxi_expoter_state
            lynxi_smi_state
        }
        class Usages {
            lynxi_device_apu_usage
            lynxi_device_cpu_usage
            lynxi_device_mem_usage
        }
        class DetailStates {
            lynxi_device_temperature
        }
        States - -|> Metric
        Usages - -|> Metric
        DetailStates -right-|> Metric
    }
    lynxi_exporter_main *- - metrics: Record
}
lynxi_exporter - -|> prometheus
package lynxi_tools {
    interface SMI{}
}
SMI -up-* metrics
@enduml

PlantUML version 1.2022.1beta4(Unknown compile time)
(GPL source distribution)
Java Runtime: Java(TM) SE Runtime Environment
JVM: Java HotSpot(TM) 64-Bit Server VM
Default Encoding: UTF-8
Language: en
Country: US
--></g></svg>