<?xml version="1.0" encoding="UTF-8" standalone="no"?><svg xmlns="http://www.w3.org/2000/svg" xmlns:xlink="http://www.w3.org/1999/xlink" contentScriptType="application/ecmascript" contentStyleType="text/css" height="243px" preserveAspectRatio="none" style="width:623px;height:243px;background:#FFFFFF;" version="1.1" viewBox="0 0 623 243" width="623px" zoomAndPan="magnify"><defs><filter height="300%" id="f1m6caq2ngcqs1" width="300%" x="-1" y="-1"><feGaussianBlur result="blurOut" stdDeviation="2.0"/><feColorMatrix in="blurOut" result="blurOut2" type="matrix" values="0 0 0 0 0 0 0 0 0 0 0 0 0 0 0 0 0 0 .4 0"/><feOffset dx="4.0" dy="4.0" in="blurOut2" result="blurOut3"/><feBlend in="SourceGraphic" in2="blurOut3" mode="normal"/></filter></defs><g><!--MD5=[5dd897bbb138c26bca2ae5885d0c2570]
cluster lynxi_tools--><polygon fill="#FFFFFF" filter="url(#f1m6caq2ngcqs1)" points="16,6,109,6,116,28.2969,606,28.2969,606,236,16,236,16,6" style="stroke:#000000;stroke-width:1.5;"/><line style="stroke:#000000;stroke-width:1.5;" x1="16" x2="116" y1="28.2969" y2="28.2969"/><text fill="#000000" font-family="sans-serif" font-size="14" font-weight="bold" lengthAdjust="spacing" textLength="87" x="20" y="20.9951">lynxi_tools</text><!--MD5=[f2ca254920db5ae9291f8906035f96da]
cluster smi--><polygon fill="#FFFFFF" filter="url(#f1m6caq2ngcqs1)" points="40,49,75,49,82,71.2969,582,71.2969,582,212,40,212,40,49" style="stroke:#000000;stroke-width:1.5;"/><line style="stroke:#000000;stroke-width:1.5;" x1="40" x2="82" y1="71.2969" y2="71.2969"/><text fill="#000000" font-family="sans-serif" font-size="14" font-weight="bold" lengthAdjust="spacing" textLength="29" x="44" y="63.9951">smi</text><!--MD5=[dcea3864ff63e80baf8efd25d1063326]
class SMI--><rect codeLine="3" fill="#FEFECE" filter="url(#f1m6caq2ngcqs1)" height="86.4141" id="SMI" style="stroke:#A80036;stroke-width:1.5;" width="141" x="424.5" y="97"/><ellipse cx="479.75" cy="113" fill="#B4A7E5" rx="11" ry="11" style="stroke:#A80036;stroke-width:1.0;"/><path d="M480.7031,109.7813 L482.4219,109.7813 C482.8125,109.7813 483,109.75 483.125,109.6719 C483.3906,109.5156 483.5313,109.2344 483.5313,108.9375 C483.5313,108.6719 483.4219,108.4063 483.1875,108.2344 C483.0156,108.125 482.875,108.0938 482.4219,108.0938 L477.2813,108.0938 C476.8438,108.0938 476.7188,108.1094 476.5625,108.2031 C476.3125,108.3594 476.1563,108.6563 476.1563,108.9375 C476.1563,109.2188 476.2969,109.4688 476.5156,109.6406 C476.6719,109.75 476.8594,109.7813 477.2813,109.7813 L479,109.7813 L479,116.2969 L477.2813,116.2969 C476.8438,116.2969 476.7188,116.3125 476.5625,116.4219 C476.3125,116.5781 476.1563,116.8594 476.1563,117.1563 C476.1563,117.4063 476.2969,117.6719 476.5156,117.8281 C476.6719,117.9531 476.875,118 477.2813,118 L482.4219,118 C483.1719,118 483.5313,117.7188 483.5313,117.1563 C483.5313,116.875 483.4219,116.625 483.1875,116.4531 C483.0156,116.3281 482.875,116.2969 482.4219,116.2969 L480.7031,116.2969 L480.7031,109.7813 Z " fill="#000000"/><text fill="#000000" font-family="sans-serif" font-size="12" font-style="italic" lengthAdjust="spacing" textLength="22" x="500.25" y="117.1543">SMI</text><line style="stroke:#A80036;stroke-width:1.5;" x1="425.5" x2="564.5" y1="129" y2="129"/><line style="stroke:#A80036;stroke-width:1.5;" x1="425.5" x2="564.5" y1="137" y2="137"/><text fill="#000000" font-family="sans-serif" font-size="11" lengthAdjust="spacing" textLength="129" x="430.5" y="151.2104">GetDevices() []Device</text><text fill="#000000" font-family="sans-serif" font-size="11" lengthAdjust="spacing" textLength="113" x="430.5" y="164.0151">GetBoards() []Board</text><text fill="#000000" font-family="sans-serif" font-size="11" lengthAdjust="spacing" textLength="104" x="430.5" y="176.8198">GetErrors() []string</text><!--MD5=[9563755d011c5cec7ec66dc53565a59e]
class Board--><rect codeLine="8" fill="#FEFECE" filter="url(#f1m6caq2ngcqs1)" height="112.0234" id="Board" style="stroke:#A80036;stroke-width:1.5;" width="118" x="165" y="84"/><ellipse cx="202.5" cy="100" fill="#ADD1B2" rx="11" ry="11" style="stroke:#A80036;stroke-width:1.0;"/><path d="M204.8438,95.6719 C203.9063,95.2344 203.3125,95.0938 202.4375,95.0938 C199.8125,95.0938 197.8125,97.1719 197.8125,99.8906 L197.8125,101.0156 C197.8125,103.5938 199.9219,105.4844 202.8125,105.4844 C204.0313,105.4844 205.1875,105.1875 205.9375,104.6406 C206.5156,104.2344 206.8438,103.7813 206.8438,103.3906 C206.8438,102.9375 206.4531,102.5469 205.9844,102.5469 C205.7656,102.5469 205.5625,102.625 205.375,102.8125 C204.9219,103.2969 204.9219,103.2969 204.7344,103.3906 C204.3125,103.6563 203.625,103.7813 202.8594,103.7813 C200.8125,103.7813 199.5156,102.6875 199.5156,100.9844 L199.5156,99.8906 C199.5156,98.1094 200.7656,96.7969 202.5,96.7969 C203.0781,96.7969 203.6875,96.9531 204.1563,97.2031 C204.6406,97.4844 204.8125,97.7031 204.9063,98.1094 C204.9688,98.5156 205,98.6406 205.1406,98.7656 C205.2813,98.9063 205.5156,99.0156 205.7344,99.0156 C206,99.0156 206.2656,98.875 206.4375,98.6563 C206.5469,98.5 206.5781,98.3125 206.5781,97.8906 L206.5781,96.4688 C206.5781,96.0313 206.5625,95.9063 206.4688,95.75 C206.3125,95.4844 206.0313,95.3438 205.7344,95.3438 C205.4375,95.3438 205.2344,95.4375 205.0156,95.75 L204.8438,95.6719 Z " fill="#000000"/><text fill="#000000" font-family="sans-serif" font-size="12" lengthAdjust="spacing" textLength="36" x="221.5" y="104.1543">Board</text><line style="stroke:#A80036;stroke-width:1.5;" x1="166" x2="282" y1="116" y2="116"/><text fill="#000000" font-family="sans-serif" font-size="11" lengthAdjust="spacing" textLength="75" x="171" y="130.2104">ProductName</text><text fill="#000000" font-family="sans-serif" font-size="11" lengthAdjust="spacing" textLength="45" x="171" y="143.0151">BoardID</text><text fill="#000000" font-family="sans-serif" font-size="11" lengthAdjust="spacing" textLength="63" x="171" y="155.8198">MountTime</text><text fill="#000000" font-family="sans-serif" font-size="11" lengthAdjust="spacing" textLength="74" x="171" y="168.6245">Manufacturer</text><text fill="#000000" font-family="sans-serif" font-size="11" lengthAdjust="spacing" textLength="106" x="171" y="181.4292">Devices []Devices</text><line style="stroke:#A80036;stroke-width:1.5;" x1="166" x2="282" y1="188.0234" y2="188.0234"/><!--MD5=[fc539fa3f3b7db9b31467e896d367b3b]
class Device--><rect codeLine="15" fill="#FEFECE" filter="url(#f1m6caq2ngcqs1)" height="99.2188" id="Device" style="stroke:#A80036;stroke-width:1.5;" width="74" x="56" y="90.5"/><ellipse cx="71" cy="106.5" fill="#ADD1B2" rx="11" ry="11" style="stroke:#A80036;stroke-width:1.0;"/><path d="M73.3438,102.1719 C72.4063,101.7344 71.8125,101.5938 70.9375,101.5938 C68.3125,101.5938 66.3125,103.6719 66.3125,106.3906 L66.3125,107.5156 C66.3125,110.0938 68.4219,111.9844 71.3125,111.9844 C72.5313,111.9844 73.6875,111.6875 74.4375,111.1406 C75.0156,110.7344 75.3438,110.2813 75.3438,109.8906 C75.3438,109.4375 74.9531,109.0469 74.4844,109.0469 C74.2656,109.0469 74.0625,109.125 73.875,109.3125 C73.4219,109.7969 73.4219,109.7969 73.2344,109.8906 C72.8125,110.1563 72.125,110.2813 71.3594,110.2813 C69.3125,110.2813 68.0156,109.1875 68.0156,107.4844 L68.0156,106.3906 C68.0156,104.6094 69.2656,103.2969 71,103.2969 C71.5781,103.2969 72.1875,103.4531 72.6563,103.7031 C73.1406,103.9844 73.3125,104.2031 73.4063,104.6094 C73.4688,105.0156 73.5,105.1406 73.6406,105.2656 C73.7813,105.4063 74.0156,105.5156 74.2344,105.5156 C74.5,105.5156 74.7656,105.375 74.9375,105.1563 C75.0469,105 75.0781,104.8125 75.0781,104.3906 L75.0781,102.9688 C75.0781,102.5313 75.0625,102.4063 74.9688,102.25 C74.8125,101.9844 74.5313,101.8438 74.2344,101.8438 C73.9375,101.8438 73.7344,101.9375 73.5156,102.25 L73.3438,102.1719 Z " fill="#000000"/><text fill="#000000" font-family="sans-serif" font-size="12" lengthAdjust="spacing" textLength="42" x="85" y="110.6543">Device</text><line style="stroke:#A80036;stroke-width:1.5;" x1="57" x2="129" y1="122.5" y2="122.5"/><text fill="#000000" font-family="sans-serif" font-size="11" lengthAdjust="spacing" textLength="12" x="62" y="136.7104">ID</text><text fill="#000000" font-family="sans-serif" font-size="11" lengthAdjust="spacing" textLength="25" x="62" y="149.5151">IsOn</text><text fill="#000000" font-family="sans-serif" font-size="11" lengthAdjust="spacing" textLength="34" x="62" y="162.3198">Model</text><text fill="#000000" font-family="sans-serif" font-size="11" lengthAdjust="spacing" textLength="37" x="62" y="175.1245">ChipID</text><line style="stroke:#A80036;stroke-width:1.5;" x1="57" x2="129" y1="181.7188" y2="181.7188"/><!--MD5=[734b99671ff40874980a827834279d75]
class SMIBin--><rect codeLine="21" fill="#FEFECE" filter="url(#f1m6caq2ngcqs1)" height="48" id="SMIBin" style="stroke:#A80036;stroke-width:1.5;" width="71" x="318.5" y="116"/><ellipse cx="333.5" cy="132" fill="#ADD1B2" rx="11" ry="11" style="stroke:#A80036;stroke-width:1.0;"/><path d="M335.8438,127.6719 C334.9063,127.2344 334.3125,127.0938 333.4375,127.0938 C330.8125,127.0938 328.8125,129.1719 328.8125,131.8906 L328.8125,133.0156 C328.8125,135.5938 330.9219,137.4844 333.8125,137.4844 C335.0313,137.4844 336.1875,137.1875 336.9375,136.6406 C337.5156,136.2344 337.8438,135.7813 337.8438,135.3906 C337.8438,134.9375 337.4531,134.5469 336.9844,134.5469 C336.7656,134.5469 336.5625,134.625 336.375,134.8125 C335.9219,135.2969 335.9219,135.2969 335.7344,135.3906 C335.3125,135.6563 334.625,135.7813 333.8594,135.7813 C331.8125,135.7813 330.5156,134.6875 330.5156,132.9844 L330.5156,131.8906 C330.5156,130.1094 331.7656,128.7969 333.5,128.7969 C334.0781,128.7969 334.6875,128.9531 335.1563,129.2031 C335.6406,129.4844 335.8125,129.7031 335.9063,130.1094 C335.9688,130.5156 336,130.6406 336.1406,130.7656 C336.2813,130.9063 336.5156,131.0156 336.7344,131.0156 C337,131.0156 337.2656,130.875 337.4375,130.6563 C337.5469,130.5 337.5781,130.3125 337.5781,129.8906 L337.5781,128.4688 C337.5781,128.0313 337.5625,127.9063 337.4688,127.75 C337.3125,127.4844 337.0313,127.3438 336.7344,127.3438 C336.4375,127.3438 336.2344,127.4375 336.0156,127.75 L335.8438,127.6719 Z " fill="#000000"/><text fill="#000000" font-family="sans-serif" font-size="12" lengthAdjust="spacing" textLength="39" x="347.5" y="136.1543">SMIBin</text><line style="stroke:#A80036;stroke-width:1.5;" x1="319.5" x2="388.5" y1="148" y2="148"/><line style="stroke:#A80036;stroke-width:1.5;" x1="319.5" x2="388.5" y1="156" y2="156"/><!--MD5=[b23eac6bf197b031f11c2be6c0235646]
link SMIBin to SMI--><path codeLine="22" d="M389.525,140 C394.392,140 399.259,140 404.126,140 " fill="none" id="SMIBin-to-SMI" style="stroke:#A80036;stroke-width:1.0;"/><polygon fill="none" points="404.134,133,424.134,140,404.134,147,404.134,133" style="stroke:#A80036;stroke-width:1.0;"/><!--MD5=[1d6c3196ad97cbbfcdd3b50704a33f65]
@startuml
package lynxi_tools {
    package smi {
        interface SMI {
            GetDevices() []Device
            GetBoards() []Board
            GetErrors() []string
        }
        class Board {
            ProductName
            BoardID
            MountTime
            Manufacturer
            Devices []Devices
        }
        class Device {
            ID
            IsOn
            Model
            ChipID
        }
        class SMIBin {}
        SMIBin -right-|> SMI
    }
}
@enduml

PlantUML version 1.2022.1beta4(Unknown compile time)
(GPL source distribution)
Java Runtime: Java(TM) SE Runtime Environment
JVM: Java HotSpot(TM) 64-Bit Server VM
Default Encoding: UTF-8
Language: en
Country: US
--></g></svg>